<?xml version="1.0" encoding="UTF-8"?>
<!DOCTYPE svg PUBLIC "-//W3C//DTD SVG 1.1//EN" "http://www.w3.org/Graphics/SVG/1.1/DTD/svg11.dtd">
<!-- Creator: CorelDRAW 2020 (64 Bit) -->
<svg xmlns="http://www.w3.org/2000/svg" xml:space="preserve" width="33.2442mm" height="18.3363mm" version="1.1" style="shape-rendering:geometricPrecision; text-rendering:geometricPrecision; image-rendering:optimizeQuality; fill-rule:evenodd; clip-rule:evenodd"
viewBox="0 0 35.92 19.81"
 xmlns:xlink="http://www.w3.org/1999/xlink"
 xmlns:xodm="http://www.corel.com/coreldraw/odm/2003">
 <defs>
  <style type="text/css">
   <![CDATA[
    .fil7 {fill:#7159C1}
    .fil6 {fill:white}
    .fil11 {fill:#FEFEFE;fill-rule:nonzero}
    .fil10 {fill:#373435;fill-rule:nonzero}
    .fil5 {fill:#202024;fill-rule:nonzero}
    .fil2 {fill:#248F55;fill-rule:nonzero}
    .fil1 {fill:#29A361;fill-rule:nonzero}
    .fil4 {fill:#2FB86E;fill-rule:nonzero}
    .fil0 {fill:#322153;fill-rule:nonzero}
    .fil3 {fill:#34CB79;fill-rule:nonzero}
    .fil8 {fill:#7159C1;fill-rule:nonzero}
    .fil9 {fill:white;fill-rule:nonzero}
   ]]>
  </style>
 </defs>
 <g id="Camada_x0020_1">
  <metadata id="CorelCorpID_0Corel-Layer"/>
  <g id="_1276173005760">
   <g>
    <polygon class="fil0" points="14.28,17.8 14.28,13.4 17.25,13.4 17.25,14.23 15.27,14.23 15.27,15.09 17.03,15.09 17.03,15.91 15.27,15.91 15.27,16.97 17.4,16.97 17.4,17.8 "/>
    <path class="fil0" d="M17.83 16.13c0,-0.24 0.04,-0.47 0.11,-0.68 0.08,-0.22 0.19,-0.4 0.34,-0.56 0.15,-0.16 0.33,-0.29 0.54,-0.38 0.21,-0.09 0.45,-0.14 0.72,-0.14 0.18,0 0.34,0.02 0.49,0.05 0.15,0.03 0.29,0.07 0.43,0.13l-0.2 0.76c-0.09,-0.03 -0.19,-0.06 -0.29,-0.09 -0.11,-0.03 -0.22,-0.04 -0.36,-0.04 -0.28,0 -0.49,0.09 -0.63,0.26 -0.14,0.17 -0.2,0.4 -0.2,0.69 0,0.3 0.06,0.53 0.19,0.7 0.13,0.17 0.36,0.25 0.68,0.25 0.11,0 0.24,-0.01 0.37,-0.03 0.13,-0.02 0.25,-0.06 0.36,-0.1l0.13 0.77c-0.11,0.05 -0.25,0.09 -0.41,0.12 -0.17,0.03 -0.35,0.05 -0.55,0.05 -0.3,0 -0.57,-0.04 -0.79,-0.13 -0.22,-0.09 -0.4,-0.22 -0.55,-0.37 -0.14,-0.16 -0.24,-0.34 -0.31,-0.55 -0.06,-0.22 -0.1,-0.45 -0.1,-0.7z"/>
    <path class="fil0" d="M24.13 16.12c0,0.26 -0.04,0.5 -0.11,0.72 -0.08,0.22 -0.19,0.4 -0.33,0.56 -0.14,0.15 -0.32,0.27 -0.52,0.36 -0.2,0.08 -0.42,0.13 -0.67,0.13 -0.25,0 -0.47,-0.04 -0.67,-0.13 -0.2,-0.08 -0.37,-0.2 -0.51,-0.36 -0.14,-0.16 -0.26,-0.34 -0.34,-0.56 -0.08,-0.22 -0.12,-0.46 -0.12,-0.72 0,-0.26 0.04,-0.5 0.12,-0.72 0.08,-0.22 0.2,-0.4 0.34,-0.55 0.15,-0.15 0.32,-0.27 0.52,-0.36 0.2,-0.08 0.42,-0.13 0.66,-0.13 0.24,0 0.46,0.04 0.66,0.13 0.2,0.08 0.38,0.2 0.52,0.36 0.14,0.15 0.26,0.34 0.34,0.55 0.08,0.22 0.12,0.45 0.12,0.72zm-0.96 0c0,-0.29 -0.06,-0.52 -0.18,-0.69 -0.11,-0.17 -0.28,-0.25 -0.5,-0.25 -0.22,0 -0.38,0.08 -0.5,0.25 -0.12,0.17 -0.18,0.39 -0.18,0.69 0,0.29 0.06,0.52 0.18,0.7 0.12,0.17 0.29,0.25 0.5,0.25 0.22,0 0.38,-0.08 0.5,-0.25 0.12,-0.17 0.18,-0.41 0.18,-0.7z"/>
    <path class="fil0" d="M26.19 17.86c-0.27,-0 -0.5,-0.03 -0.67,-0.09 -0.17,-0.06 -0.3,-0.13 -0.41,-0.23 -0.1,-0.1 -0.17,-0.22 -0.2,-0.36 -0.03,-0.14 -0.05,-0.3 -0.05,-0.48l0 -3.67 0.95 -0.15 0 3.64c0,0.08 0.01,0.16 0.02,0.23 0.01,0.07 0.04,0.12 0.07,0.17 0.04,0.05 0.09,0.08 0.16,0.11 0.07,0.03 0.16,0.05 0.27,0.06l-0.13 0.78z"/>
    <path class="fil0" d="M26.71 16.15c0,-0.3 0.04,-0.55 0.13,-0.77 0.09,-0.22 0.21,-0.41 0.36,-0.56 0.15,-0.15 0.32,-0.26 0.51,-0.34 0.19,-0.08 0.39,-0.11 0.6,-0.11 0.47,0 0.85,0.15 1.12,0.44 0.28,0.29 0.41,0.71 0.41,1.28 0,0.05 -0,0.12 -0.01,0.18 -0,0.06 -0.01,0.12 -0.01,0.17l-2.15 0c0.02,0.19 0.11,0.35 0.27,0.46 0.16,0.11 0.38,0.17 0.65,0.17 0.17,0 0.34,-0.01 0.51,-0.04 0.17,-0.03 0.31,-0.07 0.41,-0.12l0.13 0.77c-0.05,0.03 -0.12,0.05 -0.2,0.08 -0.08,0.03 -0.18,0.05 -0.29,0.06 -0.1,0.02 -0.21,0.04 -0.33,0.05 -0.12,0.01 -0.24,0.02 -0.36,0.02 -0.3,0 -0.56,-0.04 -0.79,-0.13 -0.22,-0.09 -0.4,-0.21 -0.55,-0.36 -0.14,-0.16 -0.25,-0.34 -0.32,-0.55 -0.07,-0.21 -0.1,-0.44 -0.1,-0.69zm2.22 -0.36c-0,-0.08 -0.02,-0.16 -0.04,-0.23 -0.02,-0.08 -0.06,-0.14 -0.11,-0.2 -0.05,-0.06 -0.11,-0.11 -0.18,-0.15 -0.07,-0.04 -0.16,-0.06 -0.27,-0.06 -0.11,0 -0.2,0.02 -0.27,0.06 -0.08,0.03 -0.14,0.08 -0.19,0.14 -0.05,0.06 -0.09,0.13 -0.12,0.21 -0.03,0.08 -0.04,0.15 -0.06,0.23l1.25 0z"/>
    <path class="fil0" d="M30.54 13.63l0.95 -0.15 0 0.98 1.14 0 0 0.79 -1.14 0 0 1.17c0,0.2 0.03,0.36 0.1,0.48 0.07,0.12 0.21,0.18 0.43,0.18 0.1,0 0.21,-0.01 0.31,-0.03 0.11,-0.02 0.21,-0.05 0.3,-0.08l0.13 0.74c-0.11,0.05 -0.24,0.09 -0.38,0.12 -0.14,0.03 -0.31,0.05 -0.51,0.05 -0.26,0 -0.47,-0.03 -0.64,-0.1 -0.17,-0.07 -0.3,-0.17 -0.41,-0.29 -0.1,-0.13 -0.17,-0.28 -0.22,-0.46 -0.04,-0.18 -0.06,-0.37 -0.06,-0.59l0 -2.81z"/>
    <path class="fil0" d="M34.55 17.14c0.09,0 0.18,-0 0.27,-0.01 0.08,-0 0.15,-0.01 0.2,-0.02l0 -0.72c-0.04,-0.01 -0.1,-0.02 -0.17,-0.03 -0.08,-0.01 -0.15,-0.01 -0.21,-0.01 -0.09,0 -0.17,0.01 -0.25,0.02 -0.08,0.01 -0.14,0.03 -0.2,0.06 -0.06,0.03 -0.11,0.07 -0.14,0.12 -0.03,0.05 -0.05,0.11 -0.05,0.19 0,0.15 0.05,0.25 0.15,0.31 0.1,0.05 0.24,0.08 0.41,0.08zm-0.08 -2.77c0.28,0 0.51,0.03 0.7,0.1 0.19,0.06 0.33,0.15 0.44,0.27 0.11,0.12 0.19,0.26 0.24,0.43 0.05,0.17 0.07,0.36 0.07,0.56l0 1.97c-0.14,0.03 -0.32,0.06 -0.56,0.1 -0.24,0.04 -0.53,0.06 -0.88,0.06 -0.22,0 -0.41,-0.02 -0.59,-0.06 -0.17,-0.04 -0.32,-0.1 -0.45,-0.18 -0.13,-0.09 -0.22,-0.2 -0.29,-0.34 -0.07,-0.14 -0.1,-0.31 -0.1,-0.51 0,-0.19 0.04,-0.36 0.11,-0.5 0.08,-0.14 0.19,-0.24 0.32,-0.32 0.13,-0.08 0.28,-0.14 0.45,-0.17 0.17,-0.04 0.34,-0.06 0.53,-0.06 0.12,0 0.23,0.01 0.32,0.02 0.1,0.01 0.18,0.02 0.24,0.04l0 -0.09c0,-0.16 -0.05,-0.29 -0.15,-0.39 -0.1,-0.1 -0.27,-0.15 -0.51,-0.15 -0.16,0 -0.32,0.01 -0.48,0.04 -0.16,0.02 -0.29,0.05 -0.41,0.1l-0.12 -0.76c0.06,-0.02 0.12,-0.03 0.2,-0.05 0.08,-0.02 0.18,-0.04 0.27,-0.05 0.1,-0.02 0.2,-0.03 0.3,-0.04 0.11,-0.01 0.22,-0.02 0.33,-0.02z"/>
    <path class="fil1" d="M2.9 11.45l-0.91 1.73c-0.06,0.11 -0.02,0.25 0.09,0.31l1.42 0.84c0.11,0.06 0.25,0.02 0.31,-0.09l1.74 -3.16 -2.05 0c-0.25,0 -0.48,0.14 -0.59,0.37z"/>
    <path class="fil2" d="M5.55 11.09l-1.74 3.16c-0.06,0.11 -0.2,0.15 -0.31,0.09l-0.37 -0.22c0.09,0.02 0.18,-0.03 0.23,-0.12l1.6 -2.92 0.58 0z"/>
    <path class="fil3" d="M7.45 12.76l-0.63 -1.29c-0.11,-0.24 -0.35,-0.39 -0.6,-0.39l-1.81 0 1.39 2.44c-0,0 -0.01,0 -0.01,0.01 -0.09,0.04 -0.08,0.17 0.01,0.21l1.2 0.48c0.06,0.02 0.12,-0.01 0.14,-0.06l0.46 -1.25c0.03,-0.09 -0.06,-0.18 -0.14,-0.14z"/>
    <path class="fil4" d="M7.59 12.91l-0.46 1.25c-0.02,0.06 -0.08,0.09 -0.14,0.06l-0.36 -0.14 0.43 -1.17c0.02,-0.07 -0.01,-0.13 -0.07,-0.15 -0.05,-0.02 -0.1,-0.05 -0.12,-0.1l-0.57 -1.18c-0.11,-0.24 -0.35,-0.39 -0.6,-0.39l0.53 0c0.26,0 0.49,0.15 0.6,0.39l0.63 1.29c0.09,-0.04 0.18,0.05 0.14,0.14z"/>
    <path class="fil1" d="M6.24 17.74c-0.02,-0.07 -0.11,-0.1 -0.16,-0.05l-0.94 0.97c-0.04,0.04 -0.04,0.1 0,0.14l0.94 0.98c0.05,0.06 0.14,0.03 0.16,-0.04l1.38 0c0.25,0 0.49,-0.15 0.6,-0.38l0.79 -1.61 -2.78 0 0 0z"/>
    <path class="fil2" d="M7.41 17.74l0.45 0.7c0.1,0.16 0.11,0.36 0.03,0.53l-0.18 0.38c-0.12,0.24 -0.35,0.38 -0.6,0.38l0.53 0c0.25,0 0.49,-0.15 0.6,-0.38l0.79 -1.61 -1.61 0 0 0z"/>
    <path class="fil1" d="M4.35 19.56l0 -1.72c0,-0.13 -0.1,-0.23 -0.23,-0.23l-3.72 0 0.96 1.82c0.12,0.23 0.35,0.37 0.59,0.37l2.16 0c0.12,0 0.23,-0.1 0.23,-0.23z"/>
    <polygon class="fil2" points="1.99,17.6 1.16,19.03 0.41,17.6 "/>
    <path class="fil2" d="M4.35 17.84l0 1.72c0,0.13 -0.1,0.23 -0.23,0.23l-0.59 0c0.12,0 0.23,-0.1 0.23,-0.23l0 -1.72c0,-0.13 -0.1,-0.23 -0.23,-0.23l0.59 0c0.12,0 0.23,0.1 0.23,0.23z"/>
    <path class="fil3" d="M2.54 16.09l-0.17 -1.3c-0.01,-0.06 -0.07,-0.11 -0.13,-0.1l-1.26 0.17c-0.09,0.01 -0.13,0.13 -0.07,0.2l-0.8 1.19c-0.15,0.22 -0.16,0.5 -0.04,0.74l0.87 1.65 1.41 -2.43c0,0 0,0 0,0 0.08,0.06 0.19,-0.01 0.18,-0.11z"/>
    <path class="fil4" d="M2.35 16.2c-0,-0 -0,-0 -0,-0l-1.41 2.43 -0.29 -0.55 1.14 -1.98 0.03 -0.05c0.02,-0.03 0.05,-0.04 0.08,-0.04 0,0 0,0 0,0 0.07,0.01 0.14,-0.05 0.13,-0.13l-0.15 -1.14 0.34 -0.05c0.06,-0.01 0.12,0.04 0.13,0.1l0.17 1.3c0.01,0.1 -0.1,0.17 -0.18,0.11z"/>
    <path class="fil3" d="M9.4 16.16l-1.09 -1.63c-0.07,-0.1 -0.2,-0.13 -0.3,-0.07l-1.42 0.85c-0.11,0.07 -0.15,0.22 -0.08,0.33l2 3.13 0.93 -1.89c0.11,-0.23 0.09,-0.5 -0.05,-0.72z"/>
    <path class="fil4" d="M9.45 16.87l-0.93 1.89 -0.31 -0.49 0.69 -1.41c0.11,-0.23 0.09,-0.5 -0.05,-0.72l-1.05 -1.58 0.21 -0.13c0.1,-0.06 0.23,-0.03 0.3,0.07l1.09 1.63c0.14,0.21 0.16,0.49 0.05,0.72z"/>
   </g>
   <g>
    <g>
     <path class="fil5" d="M21.14 0l-5.28 0c-0.08,0 -0.15,0.07 -0.15,0.15l0 5.28c0,0.08 0.07,0.15 0.15,0.15l5.28 0c0.08,0 0.15,-0.07 0.15,-0.15l0 -5.28c0,-0.08 -0.07,-0.15 -0.15,-0.15z"/>
     <path class="fil6" d="M19.49 1.55c0,0.08 0.03,0.13 0.1,0.13 0.04,0 0.09,-0.01 0.14,-0.04l0.06 0.18c-0.08,0.04 -0.15,0.06 -0.22,0.06 -0.1,0 -0.17,-0.03 -0.23,-0.08 -0.05,-0.05 -0.08,-0.13 -0.08,-0.23l0 -0.36 -0.18 0 0 -0.18 0.18 0 0 -0.3 0.22 -0.07 0 0.37 0.32 0 0 0.18 -0.32 0 0 0.34 -0 0zm-1.42 -0.06l-0.63 0c0.01,0.06 0.04,0.11 0.07,0.14 0.04,0.03 0.08,0.05 0.13,0.05 0.09,0 0.16,-0.04 0.21,-0.11l0.2 0.04c-0.04,0.08 -0.09,0.15 -0.16,0.19 -0.07,0.04 -0.15,0.06 -0.24,0.06 -0.12,0 -0.22,-0.04 -0.3,-0.12 -0.08,-0.08 -0.12,-0.19 -0.12,-0.31 0,-0.13 0.04,-0.23 0.12,-0.32 0.08,-0.08 0.18,-0.12 0.3,-0.12 0.11,0 0.21,0.04 0.29,0.12 0.08,0.08 0.12,0.18 0.13,0.3l0 0.07zm-0.55 -0.27c-0.04,0.03 -0.06,0.06 -0.08,0.11l0.4 0c-0.01,-0.05 -0.04,-0.09 -0.07,-0.11 -0.04,-0.03 -0.08,-0.04 -0.12,-0.04 -0.05,0 -0.09,0.01 -0.13,0.04zm-0.5 -0.11c0.06,0.06 0.09,0.15 0.09,0.25l0 0.5 -0.22 0 0 -0.46c0,-0.06 -0.02,-0.11 -0.05,-0.14 -0.03,-0.04 -0.07,-0.05 -0.12,-0.05 -0.14,0 -0.21,0.09 -0.21,0.28l0 0.37 -0.22 0 0 -0.83 0.22 0 0 0.07c0.07,-0.07 0.15,-0.1 0.26,-0.1 0.1,-0 0.18,0.03 0.24,0.1zm1.73 0.75l0.26 0 -0.29 -0.4 0.29 -0.42 -0.26 0 -0.2 0.28 -0.2 -0.28 -0.26 0 0.29 0.42 -0.29 0.4 0.26 0 0.2 -0.27 0.2 0.27zm-1.92 0.27l0 1.18 0.22 0 0 -1.18 -0.22 0zm1.2 0.8l-0.63 0c0.01,0.06 0.04,0.11 0.07,0.14 0.04,0.03 0.08,0.05 0.13,0.05 0.09,0 0.16,-0.04 0.21,-0.11l0.2 0.04c-0.04,0.08 -0.09,0.15 -0.16,0.19 -0.07,0.04 -0.15,0.06 -0.24,0.06 -0.12,0 -0.22,-0.04 -0.3,-0.12 -0.08,-0.08 -0.12,-0.19 -0.12,-0.31 0,-0.13 0.04,-0.23 0.12,-0.32 0.08,-0.08 0.18,-0.12 0.3,-0.12 0.11,0 0.21,0.04 0.29,0.12 0.08,0.08 0.12,0.18 0.13,0.3l0 0.07zm-0.55 -0.27c-0.04,0.03 -0.06,0.06 -0.08,0.11l0.4 0c-0.01,-0.05 -0.04,-0.09 -0.07,-0.11 -0.04,-0.03 -0.08,-0.04 -0.12,-0.04 -0.05,0 -0.09,0.01 -0.13,0.04zm0.55 -0.18l0.38 0.83 0.16 0 0.38 -0.83 -0.23 0 -0.23 0.51 -0.23 -0.51 -0.23 0zm1.77 0.45l-0.63 0c0.01,0.06 0.04,0.11 0.07,0.14 0.04,0.03 0.08,0.05 0.13,0.05 0.09,0 0.16,-0.04 0.21,-0.11l0.2 0.04c-0.04,0.08 -0.09,0.15 -0.16,0.19 -0.07,0.04 -0.15,0.06 -0.24,0.06 -0.12,0 -0.22,-0.04 -0.3,-0.12 -0.08,-0.08 -0.12,-0.19 -0.12,-0.31 0,-0.13 0.04,-0.23 0.12,-0.32 0.08,-0.08 0.18,-0.12 0.3,-0.12 0.11,0 0.21,0.04 0.29,0.12 0.08,0.08 0.12,0.18 0.13,0.3l0 0.07zm-0.55 -0.27c-0.04,0.03 -0.06,0.06 -0.08,0.11l0.4 0c-0.01,-0.05 -0.04,-0.09 -0.07,-0.11 -0.04,-0.03 -0.08,-0.04 -0.12,-0.04 -0.05,0 -0.09,0.01 -0.13,0.04zm0.68 -0.54l0 1.18 0.22 0 0 -1.18 -0.22 0zm-2.67 2.55l-0.18 0 -0.18 -0.49 -0.18 0.49 -0.18 0 -0.31 -0.83 0.23 0 0.17 0.5 0.18 -0.5 0.17 0 0.18 0.5 0.17 -0.5 0.23 0 -0.31 0.83zm0.55 -0.38l0.63 0 0 -0.07c-0,-0.12 -0.05,-0.22 -0.13,-0.3 -0.08,-0.08 -0.18,-0.12 -0.29,-0.12 -0.12,0 -0.22,0.04 -0.3,0.12 -0.08,0.08 -0.12,0.19 -0.12,0.32 0,0.13 0.04,0.23 0.12,0.31 0.08,0.08 0.18,0.12 0.3,0.12 0.09,0 0.17,-0.02 0.24,-0.06 0.07,-0.04 0.12,-0.11 0.16,-0.19l-0.2 -0.04c-0.04,0.07 -0.11,0.11 -0.21,0.11 -0.05,0 -0.1,-0.02 -0.13,-0.05 -0.04,-0.03 -0.06,-0.08 -0.07,-0.14zm0.01 -0.15c0.01,-0.05 0.04,-0.09 0.08,-0.11 0.04,-0.03 0.08,-0.04 0.13,-0.04 0.05,0 0.09,0.01 0.12,0.04 0.04,0.03 0.06,0.06 0.07,0.11l-0.4 0zm1.53 0.15l-0.63 0c0.01,0.06 0.04,0.11 0.07,0.14 0.04,0.03 0.08,0.05 0.13,0.05 0.09,0 0.16,-0.04 0.21,-0.11l0.2 0.04c-0.04,0.08 -0.09,0.15 -0.16,0.19 -0.07,0.04 -0.15,0.06 -0.24,0.06 -0.12,0 -0.22,-0.04 -0.3,-0.12 -0.08,-0.08 -0.12,-0.19 -0.12,-0.31 0,-0.13 0.04,-0.23 0.12,-0.32 0.08,-0.08 0.18,-0.12 0.3,-0.12 0.11,0 0.21,0.04 0.29,0.12 0.08,0.08 0.12,0.18 0.13,0.3l0 0.07zm-0.55 -0.27c-0.04,0.03 -0.06,0.06 -0.08,0.11l0.4 0c-0.01,-0.05 -0.04,-0.09 -0.07,-0.11 -0.04,-0.03 -0.08,-0.04 -0.12,-0.04 -0.05,0 -0.09,0.01 -0.13,0.04zm0.86 0.65l0 -0.31 0.33 0.31 0.3 0 -0.43 -0.41 0.4 -0.41 -0.28 0 -0.32 0.32 0 -0.68 -0.22 0 0 1.18 0.22 0z"/>
     <path class="fil7" d="M16.07 1.32l0 -0.23 -0.63 0.23 -0 -0 0 0 0 0.23 0 0 0 -0 0.63 0.23 0 -0.23 -0.32 -0.12 0.32 -0.12zm4.87 3.42l0 -0.23 0.32 -0.12 -0.32 -0.12 0 -0.23 0.63 0.23 0 -0 0 0 0 0.23 0 0 -0 -0 -0.63 0.23zm-0.63 -1.5l0 0.18 0.7 0 0 -0.18 -0.7 0zm-4.28 0.22l0 -0.18 0.7 0 0 0.18 -0.7 0zm4.64 0.27l-0.37 1.18 0.22 0 0.37 -1.18 -0.22 0z"/>
     <path class="fil8" d="M20.66 1.08l0.76 0c0.08,0 0.15,0.07 0.15,0.15l0 0.37c0,0.08 -0.07,0.15 -0.15,0.15l-0.76 0c-0.08,0 -0.15,-0.07 -0.15,-0.15l0 -0.37c0,-0.08 0.07,-0.15 0.15,-0.15z"/>
     <path class="fil9" d="M20.84 1.47l-0.04 0 -0.01 0.08 -0.04 0 0.01 -0.08 -0.04 0 0 -0.03 0.05 0 0.01 -0.05 -0.04 0 0 -0.03 0.05 0 0.01 -0.08 0.04 0 -0.01 0.08 0.04 0 0.01 -0.08 0.04 0 -0.01 0.08 0.04 0 0 0.03 -0.05 0 -0.01 0.05 0.04 0 0 0.03 -0.05 0 -0.01 0.08 -0.04 0 0.01 -0.08zm-0.03 -0.03l0.04 0 0.01 -0.05 -0.04 0 -0.01 0.05z"/>
     <path class="fil9" d="M21.15 1.43c0,0.04 -0.01,0.07 -0.02,0.09 -0.02,0.02 -0.04,0.03 -0.07,0.03 -0.03,0 -0.05,-0.01 -0.07,-0.03 -0.02,-0.02 -0.02,-0.05 -0.02,-0.09l0 -0.05c0,-0.04 0.01,-0.07 0.02,-0.09 0.02,-0.02 0.04,-0.03 0.07,-0.03 0.03,0 0.05,0.01 0.07,0.03 0.02,0.02 0.02,0.05 0.02,0.09l0 0.05zm-0.06 -0.06c0,-0.02 -0,-0.04 -0.01,-0.05 -0.01,-0.01 -0.02,-0.02 -0.03,-0.02 -0.01,0 -0.02,0.01 -0.03,0.02 -0.01,0.01 -0.01,0.03 -0.01,0.05l0 0.07c0,0.02 0,0.04 0.01,0.05 0.01,0.01 0.02,0.02 0.03,0.02 0.01,0 0.02,-0.01 0.03,-0.02 0.01,-0.01 0.01,-0.03 0.01,-0.05l0 -0.07z"/>
     <polygon class="fil9" points="21.33,1.55 21.27,1.55 21.27,1.33 21.2,1.35 21.2,1.31 21.32,1.26 21.33,1.26 "/>
    </g>
    <g>
     <path id="Fill_2" class="fil8" d="M15.25 8.01l-0.42 0c-0,0 -0.01,-0 -0.01,-0l-0.44 -0.74 -0.2 0 0 0.73c0,0 -0,0.01 -0.01,0.01l-0.36 0c-0,0 -0.01,-0 -0.01,-0.01l-0 -1.8c0,-0 0,-0.01 0.01,-0.01l0.7 -0c0.42,0 0.65,0.19 0.65,0.53 0,0.01 0,0.01 0,0.02 0,0.12 -0.04,0.24 -0.12,0.33 -0.07,0.08 -0.16,0.14 -0.26,0.17l0.47 0.76c0,0 0,0 0,0 0,0 -0,0 -0,0 -0,0 -0,0 -0.01,0l-0 0zm-1.07 -1.5l0 0.44 0.31 0c0.19,0 0.29,-0.07 0.29,-0.23 0,-0.1 -0.05,-0.21 -0.28,-0.21l-0.31 0z" data-name="Fill 2"/>
     <path id="Fill_4" class="fil8" d="M15.96 8.01c-0.01,0 -0.01,0 -0.02,0 -0.34,0 -0.62,-0.28 -0.62,-0.62 0,-0.02 0,-0.03 0,-0.05 -0,-0.01 -0,-0.02 -0,-0.04 0,-0.35 0.28,-0.63 0.63,-0.63 0,0 0,0 0.01,0 0.01,-0 0.01,-0 0.02,-0 0.34,0 0.62,0.28 0.62,0.62 0,0.02 -0,0.03 -0,0.05 0,0.01 0,0.03 0,0.04 0,0.35 -0.28,0.63 -0.63,0.63 -0,0 -0,0 -0,0z" data-name="Fill 4"/>
     <path id="Fill_4_0" class="fil10" d="M15.95 7.74c-0,0 -0.01,0 -0.01,0 -0.21,0 -0.37,-0.17 -0.37,-0.37 0,-0.01 0,-0.02 0,-0.03 -0,-0.01 -0,-0.01 -0,-0.02 0,-0.21 0.17,-0.38 0.38,-0.38 0,0 0,0 0,0 0,-0 0.01,-0 0.01,-0 0.21,0 0.37,0.17 0.37,0.37 0,0.01 -0,0.02 -0,0.03 0,0.01 0,0.02 0,0.02 0,0.21 -0.17,0.38 -0.38,0.38 -0,0 -0,0 -0,0z" data-name="Fill 4"/>
     <g>
      <path id="Fill_6" class="fil8" d="M17.37 6.98c0.01,-0 0.02,-0 0.02,-0 0.11,0 0.21,0.08 0.22,0.19 0,0 0,0.01 0.01,0.01 0,0 0,0 0,0l0.32 0c0,0 0,0 0,0 0,0 0,-0 0.01,-0 0,-0 0,-0 0,-0.01 0,-0 0,-0 0,-0 -0.03,-0.32 -0.24,-0.5 -0.58,-0.5 -0.01,-0 -0.01,-0 -0.02,-0 -0.17,0 -0.33,0.07 -0.45,0.2 -0.11,0.13 -0.17,0.29 -0.17,0.46 0,0.01 0,0.02 0,0.03 0,0.41 0.24,0.66 0.62,0.66 0.34,0 0.55,-0.18 0.59,-0.49 0,-0 0,-0 0,-0 0,-0 -0,-0.01 -0.01,-0.01 0,0 -0,0 -0,0l-0.32 -0c0,0 0,0 0,0 -0,0 -0.01,0 -0.01,0.01 -0.03,0.13 -0.11,0.19 -0.25,0.19 -0.24,0 -0.28,-0.22 -0.28,-0.36 0,-0.18 0.07,-0.36 0.28,-0.36l-0 0zm0 0l0 0 0 0z" data-name="Fill 6"/>
     </g>
     <path id="Fill_8" class="fil8" d="M19.92 8.01c-0.4,0 -0.64,-0.25 -0.64,-0.67 0,-0.4 0.25,-0.67 0.63,-0.67 0.37,0 0.6,0.25 0.6,0.66 0,0.04 -0,0.08 -0,0.11l0 0c-0,0 -0,0.01 -0.01,0.01l-0.87 0c0,0 0,0 0,0.01 0,0.14 0.12,0.26 0.26,0.26 0.01,0 0.01,-0 0.02,-0 0.01,0 0.02,0 0.03,0 0.09,0 0.17,-0.06 0.2,-0.14 0,-0 0,-0.01 0.01,-0.01 0,0 0,0 0,0l0.32 0c0,0 0.01,0 0.01,0.01 0,0 0,0 0,0 -0.05,0.25 -0.27,0.43 -0.52,0.43 -0.01,0 -0.02,-0 -0.04,-0l0 0zm-0.01 -1.04c-0.01,-0 -0.01,-0 -0.02,-0 -0.12,0 -0.23,0.09 -0.25,0.21l0.53 0c-0.01,-0.12 -0.12,-0.21 -0.24,-0.21 -0.01,0 -0.01,0 -0.02,0l0 0z" data-name="Fill 8"/>
     <g>
      <path id="Fill_10" class="fil8" d="M21.54 6.67l-0.29 0 0 -0.32c0,-0 -0,-0.01 -0.01,-0.01l-0.33 -0c-0,0 -0.01,0 -0.01,0.01l-0 0.32 -0.22 0c-0,0 -0.01,0 -0.01,0.01l-0 0.29c0,0 0,0.01 0.01,0.01l0.22 -0 0 0.68c0,0.29 0.17,0.35 0.41,0.35l0.22 0c0,-0 0.01,-0 0.01,-0.01l0 -0.29c-0,-0 -0,-0.01 -0.01,-0.01 0,0 -0,0 -0,0l-0.17 0c-0.1,0 -0.13,-0.03 -0.13,-0.12l0 -0.61 0.29 0c0,0 0.01,-0 0.01,-0.01l-0 -0.29c0,-0 -0,-0.01 -0.01,-0.01l0 -0zm0 0l0 0 0 0z" data-name="Fill 10"/>
     </g>
     <path id="Fill_12" class="fil8" d="M22.48 7.24l0 0 -0.28 -0.09c-0.1,-0.04 -0.12,-0.06 -0.12,-0.1 0,-0.04 0.02,-0.09 0.17,-0.09 0.12,0 0.19,0.05 0.19,0.13 0,0 0,0.01 0.01,0.01 0,0 0,0 0,0l0.32 0c0,0 0,0 0,0 0,0 0.01,-0 0.01,-0.01 0,-0 0,-0 0,-0 0,-0.01 0,-0.01 0,-0.02 0,-0.12 -0.06,-0.24 -0.16,-0.3 -0.1,-0.06 -0.21,-0.09 -0.33,-0.09 -0.01,0 -0.02,0 -0.03,0 -0.25,0 -0.53,0.11 -0.53,0.4 0,0.23 0.17,0.31 0.34,0.36l0.21 0.07c0.15,0.05 0.19,0.07 0.19,0.12 0,0.07 -0.04,0.11 -0.21,0.11 -0.14,0 -0.21,-0.05 -0.22,-0.16 0,-0 0,-0 0,-0 0,-0 -0,-0.01 -0.01,-0.01l-0.32 0c-0,0 -0.01,0 -0.01,0.01 0,0.36 0.3,0.44 0.56,0.44 0.01,0 0.02,0 0.02,0 0.12,0 0.25,-0.03 0.36,-0.09 0.11,-0.07 0.18,-0.18 0.18,-0.31 0,-0 -0,-0.01 -0,-0.02 0,-0.21 -0.13,-0.29 -0.33,-0.36z" data-name="Fill 12"/>
     <path id="Fill_14" class="fil8" d="M23.56 8.01c-0.4,0 -0.64,-0.25 -0.64,-0.67 0,-0.4 0.25,-0.67 0.63,-0.67 0.37,0 0.6,0.25 0.6,0.66 0,0.04 -0,0.08 -0,0.11l0 0c-0,0 -0,0.01 -0.01,0.01l-0.87 0c0,0 -0,0 -0,0.01 0,0.14 0.12,0.26 0.26,0.26 0.01,0 0.01,-0 0.02,-0 0.01,0 0.02,0 0.03,0 0.09,0 0.17,-0.06 0.2,-0.14 0,-0 0,-0.01 0.01,-0.01 0,0 0,0 0,0l0.32 0c0,0 0.01,0 0.01,0.01 0,0 -0,0 -0,0 -0.05,0.25 -0.27,0.43 -0.52,0.43 -0.01,0 -0.02,-0 -0.04,-0l-0 0zm-0.01 -1.04c-0.01,-0 -0.01,-0 -0.02,-0 -0.12,0 -0.23,0.09 -0.25,0.21l0.53 0c-0.01,-0.12 -0.12,-0.21 -0.24,-0.21 -0.01,0 -0.01,0 -0.02,0l0 0z" data-name="Fill 14"/>
     <path id="Fill_16" class="fil8" d="M25.55 8.01l-0.25 0c-0.09,-0 -0.17,-0.08 -0.17,-0.18 0,-0 0,-0.01 0,-0.01 -0.09,0.11 -0.22,0.18 -0.37,0.18 -0.01,0 -0.02,-0 -0.03,-0 -0.01,0 -0.03,0 -0.04,0 -0.21,0 -0.38,-0.17 -0.38,-0.38 -0,-0.22 0.15,-0.36 0.45,-0.41l0.22 -0.04c0.11,-0.02 0.13,-0.04 0.13,-0.1 0,-0.08 -0.07,-0.12 -0.21,-0.12 -0.14,0 -0.21,0.04 -0.21,0.13 0,0 -0,0.01 -0.01,0.01l-0.32 0c-0,0 -0.01,-0 -0.01,-0.01 -0,-0.25 0.22,-0.42 0.55,-0.42 0.37,0 0.55,0.16 0.55,0.48l0 0.52c0,0.05 0.02,0.07 0.07,0.07l0.03 0c0,0 0.01,0 0.01,0.01l0 0.26c0,0 -0,0.01 -0.01,0.01 0,0 0,0 0,0l-0 0zm-0.44 -0.62c-0.02,0.01 -0.04,0.02 -0.07,0.02l-0.19 0.04c-0.13,0.03 -0.19,0.07 -0.19,0.15 0,0.11 0.08,0.13 0.16,0.13 0,0 0,0 0,0 0.16,0 0.29,-0.13 0.29,-0.29 0,-0 0,-0 0,-0.01l-0 -0.04z" data-name="Fill 16"/>
     <path id="Fill_18" class="fil8" d="M26.47 6.98c0,0 0.01,-0 0.01,-0.01l0 -0.29c0,-0 -0,-0.01 -0.01,-0.01l-0.29 -0 0 -0.32c-0,-0 -0,-0.01 -0.01,-0.01l-0.33 -0c-0,0 -0.01,0 -0.01,0.01l0 0.32 -0.22 0c-0,0 -0.01,0 -0.01,0.01l-0 0.29c0,0 0,0.01 0.01,0.01l0.22 -0 0 0.68c0,0.29 0.17,0.35 0.41,0.35l0.22 0c0,-0 0.01,-0 0.01,-0.01l0 -0.29c-0,-0 -0,-0.01 -0.01,-0.01 -0,0 -0,0 -0,0l-0.17 0c-0.1,0 -0.13,-0.03 -0.13,-0.12l0 -0.61 0.29 0z" data-name="Fill 18"/>
     <path id="Fill_20" class="fil8" d="M18.8 7.2l0.52 -0.51c0,-0 0,-0 0,-0.01 0,-0 -0,-0.01 -0.01,-0.01 -0,0 -0,0 -0,0l-0.41 0c0,0 -0,0 -0,0 -0,0 -0,0 -0.01,0l-0.46 0.45 0 -0.44c0,-0 -0,-0.01 -0.01,-0.01l-0.33 0c-0,0 -0.01,0 -0.01,0.01l-0 1.33c0,0 0,0.01 0.01,0.01l0.33 0c0,0 0.01,-0 0.01,-0.01l0 -0.45 0.12 -0.11 0.39 0.57c0,0 0,0 0.01,0l0.41 0c0,0 0,0 0,0 0,0 0.01,-0 0.01,-0.01 0,-0 -0,-0 -0,-0l-0.56 -0.8z" data-name="Fill 20"/>
     <g>
      <path id="Fill_22" class="fil8" d="M10.95 7.69c-0.1,-0.06 -0.5,-0.31 -0.5,-0.31 0,0 -0.41,-0.25 -0.5,-0.31 -0,-0 -0,-0 -0.01,-0 -0.01,0 -0.01,0.01 -0.01,0.01 -0,0.02 -0,0.05 -0,0.07 0,0 0,0 0,0 0,0.01 0,0.02 0.01,0.02l0.12 0.18c0.01,0.01 0.01,0.03 0.01,0.04 0,0.01 -0,0.01 -0,0.02l-0.08 0.31c-0,0 -0,0.01 -0,0.01 0,0.01 0,0.02 0.01,0.03 0.05,0.04 0.1,0.08 0.16,0.11 0.05,0.03 0.11,0.06 0.17,0.09 0,0 0.01,0 0.01,0 0.01,0 0.02,-0 0.02,-0.01l0.24 -0.22c0.01,-0.01 0.03,-0.02 0.05,-0.02 0,0 0,0 0.01,0l0.22 0.02c0,0 0,0 0,0 0.01,0 0.02,-0 0.02,-0.01l0.06 -0.04c0,-0 0.01,-0.01 0.01,-0.01 0,-0 -0,-0.01 -0.01,-0.01l0 0zm0 0l0 0 0 0z" data-name="Fill 22"/>
     </g>
     <path id="Fill_24" class="fil8" d="M10.27 8.09c-0,-0.03 -0.02,-0.05 -0.04,-0.06 -0.06,-0.03 -0.12,-0.06 -0.13,-0.07 -0.01,-0.01 -0.06,-0.04 -0.12,-0.08 -0.01,-0.01 -0.03,-0.02 -0.05,-0.02 -0.01,0 -0.02,0 -0.02,0l-0.01 0c-0.1,0.03 -0.17,0.11 -0.2,0.21l-0.25 0.9c-0,0 -0,0.01 -0,0.01 0,0.02 0.01,0.03 0.03,0.03 0.01,0 0.02,-0 0.02,-0.01l0.69 -0.63c0.06,-0.06 0.1,-0.14 0.1,-0.22 0,-0.02 -0,-0.03 -0,-0.05l-0 -0.01z" data-name="Fill 24"/>
     <g>
      <path id="Fill_26" class="fil8" d="M12.63 5.35c0.01,-0.01 0.02,-0.02 0.02,-0.04 0,-0.02 -0.01,-0.03 -0.02,-0.04l0 0c-0.01,-0.01 -0.03,-0.02 -0.05,-0.02l-0.43 -0.06c-0.01,-0 -0.01,-0 -0.02,-0 -0.03,0 -0.07,0.02 -0.09,0.04l-0.23 0.32c-0.01,0.02 -0.02,0.04 -0.02,0.06 0,0.03 0.01,0.06 0.04,0.08 0,0 0,0 0,0.01 0,0 -0,0 -0,0 -0,0 -0,0 -0.01,0 -0,0 -0,0 -0,-0l-0.12 -0.02 -0.16 -0.02c-0.01,-0 -0.01,-0 -0.02,-0 -0.04,0 -0.08,0.02 -0.1,0.05l-0.68 0.92c-0.01,0.01 -0.01,0.01 -0.02,0.01 -0.01,0 -0.01,-0 -0.02,-0l-0.65 -0.39c-0.01,-0.01 -0.03,-0.01 -0.05,-0.01 -0.03,0 -0.06,0.02 -0.08,0.05 -0.01,0.01 -0.01,0.03 -0.01,0.04 0,0.03 0.02,0.06 0.05,0.08l0.02 0.01c0.01,0 0.01,0.01 0.01,0.02 0,0 -0,0 -0,0l-0.02 0.13c-0,0.01 -0.01,0.02 -0.02,0.02 -0,0 -0.01,-0 -0.01,-0l-0.1 -0.06c-0.03,-0.02 -0.05,-0.02 -0.08,-0.02 -0.09,0 -0.16,0.07 -0.16,0.16 0,0.05 0.02,0.09 0.05,0.12 0,0 0.02,0.01 0.02,0.02l-0 0 0.49 0.3c0.07,0.05 0.16,0.08 0.25,0.08 0.1,0 0.2,-0.03 0.28,-0.1 0.03,-0.03 0.08,-0.05 0.13,-0.05 0.04,0 0.07,0.01 0.1,0.03 0.02,0.01 0.04,0.02 0.06,0.02 0.02,0 0.04,-0.01 0.06,-0.02l0.12 -0.07c0.02,-0.01 0.04,-0.02 0.06,-0.02 0.02,0 0.04,0.01 0.06,0.02l0.37 0.22c0,0 0.01,0 0.02,0 0.01,0 0.02,-0 0.03,-0.01l0.91 -1.23c0.07,-0.1 0.02,-0.15 -0.03,-0.16 -0,0 -0.01,-0 -0.01,-0l-0.22 -0.03c-0,-0 -0.01,-0 -0.01,-0 -0.01,-0 -0.01,-0.01 -0.01,-0.02 0,-0 0,-0.01 0,-0.01 0.07,-0.1 0.29,-0.39 0.29,-0.39l-0 0zm0 0l0 0 0 0z" data-name="Fill 26"/>
     </g>
     <path id="Fill_4_1" class="fil11" d="M15.95 7.74c-0,0 -0.01,0 -0.01,0 -0.21,0 -0.37,-0.17 -0.37,-0.37 0,-0.01 0,-0.02 0,-0.03 -0,-0.01 -0,-0.01 -0,-0.02 0,-0.21 0.17,-0.38 0.38,-0.38 0,0 0,0 0,0 0,-0 0.01,-0 0.01,-0 0.2,0 0.37,0.17 0.37,0.37 0,0.01 -0,0.02 -0,0.03 0,0.01 0,0.02 0,0.02 0,0.21 -0.17,0.38 -0.38,0.38 -0,0 -0,0 -0,0z" data-name="Fill 4"/>
    </g>
   </g>
  </g>
 </g>
</svg>
